<?xml version="1.0" encoding="UTF-8" standalone="no"?>
<!DOCTYPE svg PUBLIC "-//W3C//DTD SVG 1.1//EN" "http://www.w3.org/Graphics/SVG/1.1/DTD/svg11.dtd">
<svg width="100%" height="100%" viewBox="0 0 374 139" version="1.1" xmlns="http://www.w3.org/2000/svg" xmlns:xlink="http://www.w3.org/1999/xlink" xml:space="preserve" xmlns:serif="http://www.serif.com/" style="fill-rule:evenodd;clip-rule:evenodd;stroke-linejoin:round;stroke-miterlimit:2;">
    <g transform="matrix(0.578043,0,0,0.243396,400.899,-69.0377)">
        <rect id="Artboard1" x="-693.545" y="283.643" width="646.352" height="567.424" style="fill:none;"/>
        <g id="Artboard11" serif:id="Artboard1">
            <g transform="matrix(1.72997,0,0,4.10853,-834.207,-699.142)">
                <g transform="matrix(144,0,0,144,187.88,354.328)">
                </g>
                <text x="88.232px" y="354.328px" style="font-family:'Futura-Bold', 'Futura', sans-serif;font-weight:700;font-size:144px;fill:rgb(171,225,137);fill-opacity:0.68;">B</text>
            </g>
            <g transform="matrix(1.72997,0,0,4.10853,-729.112,-699.142)">
                <g transform="matrix(144,0,0,144,164.84,354.328)">
                </g>
                <text x="88.232px" y="354.328px" style="font-family:'Futura-Bold', 'Futura', sans-serif;font-weight:700;font-size:144px;fill:rgb(248,239,153);fill-opacity:0.87;">L</text>
            </g>
            <g transform="matrix(1.72997,0,0,4.10853,-688.603,-699.142)">
                <g transform="matrix(144,0,0,144,221.432,354.328)">
                </g>
                <text x="88.232px" y="354.328px" style="font-family:'Futura-Bold', 'Futura', sans-serif;font-weight:700;font-size:144px;fill:rgb(241,187,135);fill-opacity:0.49;">O</text>
            </g>
            <g transform="matrix(1.72997,0,0,4.10853,-577.814,-699.142)">
                <g transform="matrix(144,0,0,144,184.28,354.328)">
                </g>
                <text x="88.232px" y="354.328px" style="font-family:'Futura-Bold', 'Futura', sans-serif;font-weight:700;font-size:144px;fill:rgb(247,142,105);fill-opacity:0.68;">C</text>
            </g>
            <g transform="matrix(1.72997,0,0,4.10853,-431.985,-699.142)">
                <g transform="matrix(144,0,0,144,202.28,354.328)">
                </g>
                <text x="88.232px" y="354.328px" style="font-family:'Futura-Bold', 'Futura', sans-serif;font-weight:700;font-size:144px;fill:rgb(93,103,91);fill-opacity:0.68;">K</text>
            </g>
            <g transform="matrix(1.72997,0,0,4.10853,-766.678,-984.189)">
                <g transform="matrix(30,0,0,30,342.052,435.094)">
                </g>
                <text x="83.992px" y="435.094px" style="font-family:'Futura-Bold', 'Futura', sans-serif;font-weight:700;font-size:30px;fill:rgb(93,103,91);">R<tspan x="104.812px 125.812px " y="435.094px 435.094px ">ob</tspan>ot Collect<tspan x="294.352px 303.802px 322.642px " y="435.094px 435.094px 435.094px ">ive</tspan></text>
            </g>
        </g>
    </g>
</svg>
